<?xml version="1.0" standalone="no"?>
<!DOCTYPE svg PUBLIC "-//W3C//DTD SVG 20010904//EN"
 "http://www.w3.org/TR/2001/REC-SVG-20010904/DTD/svg10.dtd">
<svg version="1.0" xmlns="http://www.w3.org/2000/svg"
 width="613.000000pt" height="613.000000pt" viewBox="0 0 613.000000 613.000000"
 preserveAspectRatio="xMidYMid meet">
<metadata>
Created by potrace 1.11, written by Peter Selinger 2001-2013
</metadata>
<g transform="translate(0.000000,613.000000) scale(0.100000,-0.100000)"
fill="#000000" stroke="none">
<path d="M2957 4424 c-1 -1 -51 -5 -112 -9 -60 -3 -123 -8 -140 -9 -115 -12
-173 -18 -195 -21 -55 -8 -188 -25 -235 -30 -119 -12 -162 -16 -185 -20 -14
-2 -50 -7 -80 -10 -51 -6 -235 -36 -305 -50 -187 -38 -346 -79 -510 -132 -60
-19 -116 -40 -122 -45 -7 -6 -13 -8 -13 -5 0 3 -36 -10 -80 -28 -377 -160
-625 -348 -743 -565 -13 -25 -40 -72 -60 -104 -20 -32 -44 -80 -53 -105 -9
-25 -34 -84 -54 -131 -35 -78 -47 -110 -58 -150 -2 -8 -5 -56 -7 -107 -15
-343 275 -647 845 -888 241 -102 696 -219 980 -251 25 -3 56 -7 70 -10 14 -2
59 -7 100 -10 41 -3 86 -7 100 -10 137 -24 831 -24 1025 0 17 2 62 7 100 11
39 3 81 8 95 10 14 2 77 11 140 20 63 9 169 27 235 40 66 13 152 24 190 25 39
1 88 4 110 5 101 8 182 16 205 20 14 3 48 7 76 10 28 3 61 8 75 10 13 3 49 8
79 11 30 3 57 7 61 9 3 2 19 6 35 9 16 3 45 8 64 11 19 3 55 11 80 16 25 6 58
13 73 16 16 2 83 20 150 39 67 19 129 37 137 39 96 25 298 105 440 176 224
110 446 284 537 421 126 189 147 384 63 576 -54 122 -190 279 -329 378 -37 27
-82 68 -100 90 -132 172 -369 333 -661 449 -52 20 -104 41 -115 46 -78 33
-453 136 -555 153 -19 3 -57 10 -85 15 -27 5 -68 12 -90 15 -23 4 -52 9 -65
11 -14 3 -61 10 -105 15 -150 19 -151 19 -350 36 -73 6 -652 13 -658 8z m1313
-249 c105 -24 166 -39 224 -56 38 -11 76 -22 85 -24 34 -8 196 -67 220 -81 14
-9 17 -13 7 -9 -37 11 -212 53 -246 59 -19 3 -71 19 -115 37 -44 17 -120 44
-170 60 -75 25 -77 31 -5 14z m-1230 -229 c74 -4 149 -9 165 -11 17 -2 57 -7
89 -10 33 -3 73 -8 90 -10 128 -19 235 -35 256 -40 14 -2 48 -9 75 -15 28 -6
60 -12 72 -14 63 -12 301 -79 388 -110 234 -81 441 -187 579 -295 51 -40 157
-155 162 -176 9 -37 -52 -139 -131 -219 -176 -177 -484 -330 -870 -431 -144
-38 -172 -42 -390 -52 -235 -11 -584 -5 -720 11 -16 2 -64 7 -105 11 -41 3
-84 8 -95 10 -11 2 -40 7 -65 10 -25 3 -56 7 -70 10 -14 2 -65 11 -115 20
-443 76 -863 240 -1085 423 -89 73 -99 88 -88 131 66 244 376 472 858 629 133
43 336 96 410 107 24 4 48 9 52 11 4 3 35 7 70 11 35 3 64 6 65 7 5 4 272 -2
403 -8z m-1561 -150 c-2 -2 -31 -19 -64 -37 -100 -54 -196 -118 -277 -186 -43
-36 -78 -59 -78 -53 0 20 48 110 80 151 31 39 32 39 250 105 74 23 97 28 89
20z m3791 -154 c58 -29 112 -60 121 -68 35 -31 56 -173 37 -243 l-9 -33 -32
54 c-37 61 -67 96 -153 182 -34 34 -74 79 -90 101 -16 22 -31 42 -34 45 -3 3
-16 18 -30 33 l-24 28 54 -23 c30 -12 102 -46 160 -76z m-4520 -407 c7 -22 29
-71 50 -110 28 -52 38 -83 39 -122 1 -29 8 -75 15 -102 l13 -50 -72 49 c-83
58 -194 165 -220 214 -17 32 -17 36 -1 86 19 59 66 136 117 195 l34 38 6 -79
c3 -44 12 -97 19 -119z m5015 -77 c84 -285 -156 -560 -683 -781 -45 -20 -80
-31 -77 -27 3 5 51 45 108 88 157 123 247 223 312 351 15 30 39 64 54 75 99
77 216 228 243 313 7 23 16 39 20 37 4 -3 14 -28 23 -56z"/>
</g>
</svg>
